<svg data-v-423bf9ae="" xmlns="http://www.w3.org/2000/svg" viewBox="0 0 430.4922388712309 163" class="iconAbove"><!----><!----><!----><g data-v-423bf9ae="" id="02563d5c-b23c-498a-a415-7f12745018b0" fill="white" transform="matrix(4.408522947042699,0,0,4.408522947042699,-5.113885334944484,88.01102012911383)"><path d="M4.63 6.55C3.60 6.55 2.76 7.12 2.28 7.85L2.28 6.69L1.16 6.69L1.16 16.80L2.28 16.80L2.28 12.61C2.87 13.26 3.75 13.73 4.53 13.73C6.40 13.73 7.82 12.25 7.82 9.99C7.82 7.92 6.40 6.55 4.63 6.55ZM4.46 7.64C5.78 7.64 6.66 8.67 6.66 9.99C6.66 11.32 5.78 12.63 4.32 12.63C3.49 12.63 2.87 12.14 2.30 11.43L2.28 10.12C2.27 8.65 3.21 7.64 4.46 7.64ZM12.89 6.55C12.11 6.55 11.31 7.15 10.79 8.05L10.79 6.69L9.67 6.69L9.67 13.52L10.79 13.52L10.79 9.39C11.29 8.48 11.80 7.72 12.73 7.72C13.08 7.72 13.44 7.86 13.73 8.08L13.73 6.74C13.48 6.62 13.21 6.55 12.89 6.55ZM18.25 6.55C16.17 6.55 14.68 8.20 14.68 10.14C14.68 12.09 16.17 13.73 18.25 13.73C20.33 13.73 21.82 12.09 21.82 10.14C21.82 8.20 20.33 6.55 18.25 6.55ZM18.25 7.64C19.71 7.64 20.66 8.82 20.66 10.14C20.66 11.47 19.71 12.63 18.25 12.63C16.79 12.63 15.85 11.47 15.85 10.14C15.85 8.82 16.79 7.64 18.25 7.64ZM24.57 5.26C25.09 5.26 25.50 4.81 25.50 4.33C25.50 3.84 25.09 3.40 24.57 3.40C24.04 3.40 23.64 3.84 23.64 4.33C23.64 4.81 24.04 5.26 24.57 5.26ZM25.29 6.69L23.09 6.69L23.09 7.74L24.17 7.74L24.17 13.66C24.17 14.78 23.64 15.42 22.44 16.00L22.94 17.01C24.38 16.42 25.29 15.34 25.29 13.49ZM33.58 9.87C33.58 8.00 32.54 6.55 30.43 6.55C28.51 6.55 27.14 8.20 27.14 10.14C27.14 12.09 28.63 13.73 30.71 13.73C31.77 13.73 32.48 13.26 32.76 12.99L32.76 11.85C32.31 12.18 31.69 12.63 30.71 12.63C29.39 12.63 28.49 11.69 28.33 10.54L33.58 10.54ZM28.36 9.58C28.55 8.50 29.31 7.64 30.43 7.64C31.39 7.64 32.33 8.26 32.47 9.58ZM38.51 6.55C36.44 6.55 34.95 8.20 34.95 10.14C34.95 12.09 36.44 13.73 38.51 13.73C39.51 13.73 40.29 13.33 40.56 13.06L40.56 11.92C40.04 12.30 39.43 12.63 38.51 12.63C37.05 12.63 36.11 11.47 36.11 10.14C36.11 8.82 37.05 7.64 38.51 7.64C39.43 7.64 40.04 7.97 40.56 8.35L40.56 7.22C40.29 6.96 39.51 6.55 38.51 6.55ZM44.30 6.69L44.30 4.72L43.78 4.72C43.33 6.07 42.75 7.01 41.86 7.41L41.86 7.74L43.18 7.74L43.18 11.80C43.18 12.96 43.78 13.73 44.94 13.73C45.62 13.73 45.98 13.54 46.35 13.25L46.35 12.33C46.07 12.50 45.73 12.66 45.19 12.66C44.58 12.66 44.30 12.32 44.30 11.74L44.30 7.74L46.29 7.74L46.29 6.69ZM55.52 6.55C53.44 6.55 51.95 8.20 51.95 10.14C51.95 12.09 53.44 13.73 55.52 13.73C56.52 13.73 57.30 13.33 57.57 13.06L57.57 11.92C57.05 12.30 56.44 12.63 55.52 12.63C54.06 12.63 53.12 11.47 53.12 10.14C53.12 8.82 54.06 7.64 55.52 7.64C56.44 7.64 57.05 7.97 57.57 8.35L57.57 7.22C57.30 6.96 56.52 6.55 55.52 6.55ZM62.23 6.55C60.36 6.55 58.94 7.96 58.94 10.21C58.94 12.29 60.36 13.73 62.13 13.73C63.16 13.73 64.00 13.08 64.48 12.36L64.48 13.52L65.60 13.52L65.60 6.69L64.48 6.69L64.48 7.60C63.89 6.95 63.01 6.55 62.23 6.55ZM62.44 7.64C63.27 7.64 63.89 8.07 64.46 8.78L64.48 10.09C64.49 11.55 63.55 12.63 62.30 12.63C60.98 12.63 60.10 11.54 60.10 10.21C60.10 8.89 60.98 7.64 62.44 7.64ZM71.27 6.55C70.34 6.55 69.47 7.23 69.04 7.77L69.04 6.69L67.92 6.69L67.92 13.52L69.04 13.52L69.04 8.98C69.59 8.27 70.36 7.64 71.08 7.64C72.16 7.64 72.67 8.29 72.67 9.46L72.68 13.52L73.80 13.52L73.80 9.35C73.80 7.46 72.67 6.55 71.27 6.55ZM77.04 3.68L75.92 3.68L75.92 13.52L77.04 13.52L77.04 12.61C77.63 13.26 78.50 13.73 79.28 13.73C81.16 13.73 82.58 12.25 82.58 9.99C82.58 7.92 81.16 6.55 79.39 6.55C78.35 6.55 77.52 7.12 77.04 7.85ZM79.21 7.64C80.54 7.64 81.42 8.67 81.42 9.99C81.42 11.32 80.54 12.63 79.08 12.63C78.24 12.63 77.63 12.14 77.05 11.43L77.04 10.12C77.03 8.65 77.97 7.64 79.21 7.64ZM87.24 6.55C85.37 6.55 83.95 7.96 83.95 10.21C83.95 12.29 85.37 13.73 87.13 13.73C88.17 13.73 89.00 13.08 89.48 12.36L89.48 13.52L90.60 13.52L90.60 6.69L89.48 6.69L89.48 7.60C88.89 6.95 88.02 6.55 87.24 6.55ZM87.45 7.64C88.28 7.64 88.89 8.07 89.47 8.78L89.48 10.09C89.50 11.55 88.55 12.63 87.31 12.63C85.98 12.63 85.11 11.54 85.11 10.21C85.11 8.89 85.98 7.64 87.45 7.64ZM96.28 6.55C95.35 6.55 94.47 7.23 94.05 7.77L94.05 6.69L92.93 6.69L92.93 13.52L94.05 13.52L94.05 8.98C94.60 8.27 95.36 7.64 96.09 7.64C97.17 7.64 97.67 8.29 97.67 9.46L97.69 13.52L98.81 13.52L98.81 9.35C98.81 7.46 97.67 6.55 96.28 6.55Z"></path></g><!----><g data-v-423bf9ae="" id="076d46aa-180a-499d-b825-1f3cbeff0b3b" transform="matrix(1.0737403702032606,0,0,1.0737403702032606,162.39730908447956,-8.596549831118963)" stroke="none" fill="white"><path d="M75.831 81.262c-.461 4.555-4.121 7.827-8.179 7.309l-34.53-4.418c-4.055-.521-6.968-4.632-6.507-9.187l6.035-59.515c.464-4.555 4.123-7.826 8.182-7.307l34.529 4.417c4.057.52 6.969 4.632 6.506 9.187l-6.036 59.514z"></path><path d="M28.725 87.08c-4.055-.519-6.969-4.632-6.508-9.187l6.036-59.514a8.972 8.972 0 0 1 .829-2.969h-3.607c-4.083 0-7.391 3.716-7.391 8.301v59.896c0 4.586 3.308 8.302 7.391 8.302h34.754c.866 0 1.693-.177 2.467-.484L28.725 87.08z"></path></g><!----></svg>